<?xml version="1.0" ?><svg id="Слой_1" style="enable-background:new 0 0 512 512;" version="1.1" viewBox="0 0 512 512" xml:space="preserve" xmlns="http://www.w3.org/2000/svg" xmlns:xlink="http://www.w3.org/1999/xlink"><style type="text/css">
	.st0{fill:#2A616C;stroke:#3D3D3D;stroke-width:10;stroke-miterlimit:10;}
	.st1{fill:#F18A62;stroke:#3D3D3D;stroke-width:10;stroke-miterlimit:10;}
</style><g><path class="st0" d="M103.3,245.7c-0.2-10.1,80.5-4.2,82-77.8c0.9-41.7-42.6-66.4-80.3-79.8C78.5,78.6,50.8,98.9,50.8,128   c0,0-9.4,288.7,18,288.7C111.3,416.7,103.5,257.6,103.3,245.7z M82.6,157.8c1.5-31.7,14.4-30.3,33.4-30.3   c18.9,0,34.3,18.9,34.3,38.4s-13.8,28.7-31.6,37.1C101.4,211.2,79.5,224.5,82.6,157.8z"/><path class="st1" d="M191.3,264.3c-14.7-8.4,5-41.4,54.9-40.4s51.9,54,39.3,85.5c-11.6,28.9-76.1,47.3-76.1,70.6   c0,23.4,83.6-11.4,83.6,18.1c0,27.1-153.9,35.6-93.6-40.4c19-24,88.6-62.7,66.5-98.3C246.2,227.9,208.9,274.2,191.3,264.3z"/><path class="st0" d="M384.7,245.7c-0.2-10.1,80.5-4.2,82-77.8c0.9-41.7-42.6-66.4-80.3-79.8c-26.5-9.5-54.2,10.8-54.2,39.9   c0,0-9.4,288.7,18,288.7C392.7,416.7,384.9,257.6,384.7,245.7z M363.9,157.8c1.5-31.7,14.4-30.3,33.4-30.3   c18.9,0,34.3,18.9,34.3,38.4s-13.8,28.7-31.6,37.1C382.7,211.2,360.8,224.5,363.9,157.8z"/></g></svg>